<svg xmlns="http://www.w3.org/2000/svg" x="0px" y="0px" width="50" height="50" viewBox="0 0 50 50" fill="white" className="hover:animate-spin">
    <path d="M25 1C11.85 1 1 11.85 1 25c0 10.6 6.87 19.6 16.4 22.8 1.2.22 1.6-.52 1.6-1.15v-4.02c-6.68 1.45-8.08-3.22-8.08-3.22-1.1-2.8-2.68-3.55-2.68-3.55-2.18-1.5.17-1.47.17-1.47 2.4.17 3.67 2.47 3.67 2.47 2.14 3.67 5.6 2.6 6.97 1.98.22-1.55.84-2.6 1.53-3.2-5.34-.6-10.96-2.67-10.96-11.9 0-2.63.94-4.78 2.48-6.47-.25-.6-1.08-3.02.23-6.3 0 0 2.03-.65 6.65 2.47 1.93-.54 4-.8 6.05-.8 2.05 0 4.12.27 6.05.8 4.62-3.12 6.65-2.47 6.65-2.47 1.3 3.28.48 5.7.23 6.3 1.54 1.7 2.48 3.84 2.48 6.47 0 9.26-5.63 11.3-10.98 11.9.86.75 1.63 2.23 1.63 4.5v6.67c0 .63.4 1.38 1.6 1.15C42.13 44.6 49 35.6 49 25 49 11.85 38.15 1 25 1z"/>
  </svg>